<svg width="120" height="30" viewBox="0 0 120 30" fill="none" xmlns="http://www.w3.org/2000/svg">
<g clip-path="url(#clip0_7_751)">
<path d="M15.4851 0C20.1026 2.03671 23.5251 7.10676 24.1843 13.7143C24.8443 20.2802 22.4941 25.9738 18.371 28.8828C24.0195 27.3035 27.3178 20.8203 26.5758 13.4648C25.8752 6.06753 21.3812 0.41569 15.4851 0Z" fill="#FFDE09"/>
<path d="M10.0023 0.415688C3.28145 1.08011 -0.717421 8.10424 0.107367 16.1659C0.932156 24.2275 6.25018 30.2959 12.971 29.5889C19.6505 28.9236 23.6907 21.9004 22.866 13.8387C21.9998 5.77621 16.6809 -0.291325 10.0023 0.415688ZM2.4161 15.9998C1.26173 8.97651 4.88962 3.28292 9.75469 2.78461C12.9702 2.4524 14.9079 4.15604 15.7327 5.02916C16.2271 5.56922 16.3099 5.77706 15.4851 5.52748C14.0012 5.11179 11.8986 4.94568 10.0429 5.31963C4.88962 6.35886 3.56962 11.0958 6.08455 14.3796C7.52793 16.2494 8.64089 17.413 10.1662 18.9514C15.4446 24.1867 4.06483 25.8903 2.4161 15.9998ZM13.3826 27.3452C10.5786 27.8853 8.14652 26.3477 7.32173 25.3502C6.82737 24.7685 6.66173 24.6441 7.52793 24.8102C9.09469 25.1015 11.28 25.1424 13.1764 24.6023C18.4538 23.1474 19.402 18.2852 16.5981 15.1684C15.4437 13.8805 13.2169 11.8437 12.0626 10.888C6.24934 5.98405 17.9172 3.32466 20.3079 13.2152C21.9998 20.1976 18.2476 26.3895 13.3826 27.3452Z" fill="#FFDE09"/>
<path d="M83.8834 14.3788C83.8834 11.802 83.8834 9.26698 83.8834 6.69022C83.8834 6.64848 83.8834 6.60674 83.8834 6.52411C83.8834 6.44149 83.9248 6.44064 83.9662 6.44064C84.0077 6.44064 84.0491 6.44064 84.0896 6.44064C86.3164 6.44064 88.5009 6.44064 90.7277 6.44064C91.7586 6.44064 92.7482 6.52411 93.737 6.85633C94.3555 7.06417 94.9741 7.35464 95.4685 7.81207C96.2933 8.55997 96.7057 9.51572 96.6643 10.6384C96.6643 11.262 96.5409 11.8855 96.2519 12.4673C95.9223 13.1326 95.2623 13.6309 94.4789 13.797C94.2727 13.8387 94.1899 13.8387 94.1899 14.0048C94.1899 14.1709 94.3133 14.1709 94.5195 14.2127C95.3857 14.3788 96.1682 14.8362 96.622 15.4597C96.993 15.9998 97.1992 16.5816 97.2406 17.2051C97.3234 17.9948 97.2406 18.7427 96.9516 19.4906C96.5806 20.488 95.8386 21.1942 94.8905 21.6516C94.1485 22.0256 93.3651 22.1917 92.5403 22.2752C91.9631 22.3169 91.3446 22.3587 90.7674 22.3587C88.5406 22.3587 86.3147 22.3587 84.0879 22.3587C84.0465 22.3587 83.9646 22.3587 83.9231 22.3587C83.8817 22.3587 83.8403 22.3169 83.8403 22.2752C83.8403 22.2334 83.8403 22.1917 83.8403 22.1091C83.8834 19.4906 83.8834 16.9555 83.8834 14.3788ZM87.8003 17.413C87.8003 18.0365 87.8003 18.66 87.8003 19.2418C87.8003 19.4497 87.8003 19.4497 88.0065 19.4497C89.0781 19.4497 90.1091 19.4497 91.1815 19.4497C91.3877 19.4497 91.5939 19.4497 91.8 19.4079C92.3772 19.3245 92.8716 19.0757 93.2434 18.5766C93.491 18.2026 93.6144 17.7869 93.6144 17.3295C93.6144 16.5398 93.2848 15.9998 92.6248 15.6676C92.2539 15.5015 91.8415 15.418 91.4291 15.418C90.2747 15.418 89.1617 15.418 88.0074 15.418C87.8426 15.418 87.8426 15.418 87.8426 15.5841C87.8003 16.1659 87.8003 16.7894 87.8003 17.413ZM87.8003 11.1793C87.8003 11.7194 87.8003 12.3012 87.8003 12.8412C87.8003 13.0491 87.8003 13.0491 88.0065 13.0491C89.0375 13.0491 90.0271 13.0491 91.0572 13.0491C91.3868 13.0491 91.6758 13.0073 92.0054 12.9247C92.706 12.7586 93.1598 12.3429 93.2832 11.6368C93.3246 11.3454 93.3246 11.0967 93.2832 10.8054C93.2003 10.3071 92.9122 9.93226 92.4584 9.68353C92.0046 9.43394 91.5516 9.35131 91.0564 9.35131C90.0254 9.35131 89.0358 9.35131 88.0057 9.35131C87.8409 9.35131 87.8409 9.35131 87.8409 9.51742C87.8003 10.0575 87.8003 10.5975 87.8003 11.1793Z" fill="white"/>
<path d="M112.703 16.0833C112.703 15.2101 112.703 14.3379 112.703 13.4239C112.703 13.216 112.703 13.216 112.496 13.216C112.043 13.216 111.59 13.216 111.094 13.216C110.93 13.216 110.93 13.216 110.93 13.0499C110.93 12.2185 110.93 11.388 110.93 10.5566C110.93 10.3905 110.93 10.3905 111.094 10.3905C111.465 10.3905 111.836 10.3905 112.166 10.3905C112.249 10.3905 112.331 10.3905 112.414 10.3905C112.703 10.3488 112.908 10.2244 112.991 9.9331C113.032 9.767 113.074 9.60089 113.114 9.43479C113.156 8.93647 113.238 8.39556 113.279 7.89725C113.279 7.73114 113.279 7.73114 113.444 7.73114C114.31 7.73114 115.175 7.73114 116.042 7.73114C116.248 7.73114 116.248 7.73114 116.248 7.93898C116.248 8.68689 116.248 9.47653 116.248 10.2244C116.248 10.4323 116.248 10.4323 116.454 10.4323C117.567 10.4323 118.681 10.4323 119.794 10.4323C120 10.4323 120 10.4323 120 10.6401C120 11.4298 120 12.2611 120 13.0508C120 13.2586 120 13.2586 119.794 13.2586C118.681 13.2586 117.567 13.2586 116.454 13.2586C116.206 13.2586 116.206 13.2586 116.206 13.4665C116.206 14.9623 116.206 16.4589 116.206 17.9547C116.206 18.1208 116.206 18.2869 116.248 18.453C116.331 19.0766 116.66 19.4505 117.319 19.5749C117.773 19.6584 118.226 19.6584 118.721 19.6166C119.051 19.5749 119.381 19.5331 119.752 19.4923C119.835 19.4923 119.917 19.4923 119.917 19.6166C119.917 20.448 119.917 21.2785 119.917 22.1099C119.917 22.2343 119.876 22.2343 119.794 22.276C118.804 22.4421 117.856 22.5673 116.866 22.4839C116.248 22.4421 115.589 22.3178 115.011 22.1099C113.774 21.6525 113.032 20.7385 112.785 19.4088C112.702 18.9931 112.702 18.5357 112.661 18.1208C112.703 17.413 112.703 16.7477 112.703 16.0833Z" fill="white"/>
<path d="M34.9039 16.9138C35.3983 16.9138 35.9349 16.9138 36.4293 16.9138C36.6355 16.9138 36.6355 16.9138 36.6355 17.1216C36.6355 17.4956 36.6769 17.8278 36.8002 18.1609C37.0064 18.7844 37.4602 19.2001 38.078 19.4488C38.6552 19.6567 39.2738 19.7401 39.8509 19.7401C40.5929 19.7401 41.3349 19.6984 42.0363 19.4079C42.8611 19.0757 43.314 18.2861 43.1078 17.413C43.025 16.8729 42.6955 16.5816 42.2011 16.4155C41.7473 16.2911 41.3349 16.2076 40.8819 16.1242C39.8104 15.9163 38.6966 15.7919 37.625 15.5841C36.8002 15.4597 36.0169 15.2519 35.2335 14.9606C34.0377 14.4622 33.3371 13.5891 33.1309 12.3012C32.9662 11.4281 33.0076 10.514 33.3371 9.68267C33.6667 8.72692 34.2853 8.02076 35.1101 7.47985C36.0169 6.89806 37.0064 6.60673 38.0374 6.44063C39.3566 6.23278 40.7171 6.27452 42.0363 6.48237C42.8611 6.60674 43.685 6.85632 44.4278 7.31375C45.4174 7.93728 45.9946 8.80955 46.2828 9.93225C46.4476 10.514 46.489 11.1376 46.5304 11.7611C46.5304 11.969 46.5304 11.969 46.3242 11.969C45.2932 11.969 44.3036 11.969 43.2735 11.969C43.1087 11.969 43.0673 11.9272 43.0673 11.7611C43.0259 11.4289 42.9845 11.055 42.8611 10.7219C42.6135 10.0157 42.1191 9.5583 41.4177 9.35046C40.2633 9.01825 39.0676 9.01825 37.9546 9.51656C36.8416 9.97399 36.7588 11.0541 37.0884 11.8855C37.2118 12.1768 37.4594 12.3838 37.789 12.4673C38.3247 12.6334 38.9019 12.7586 39.4377 12.883C40.4273 13.0908 41.4583 13.2152 42.4884 13.423C43.2718 13.5891 44.0966 13.7552 44.8385 14.0883C46.0757 14.5866 46.7763 15.5015 46.9411 16.7894C47.0645 17.7034 46.9825 18.5766 46.6521 19.4488C46.3225 20.3628 45.7039 21.0281 44.8791 21.5264C44.1371 21.9838 43.3124 22.2326 42.4876 22.3578C41.0036 22.6074 39.5602 22.6491 38.0763 22.4413C37.2101 22.3169 36.3447 22.0673 35.5614 21.6516C34.3656 20.9864 33.6236 19.948 33.294 18.6183C33.1707 18.12 33.1293 17.6208 33.0878 17.0808C33.0878 16.9146 33.1293 16.9146 33.294 16.9146C33.8729 16.9138 34.4095 16.9138 34.9039 16.9138Z" fill="white"/>
<path d="M52.3024 20.2802C52.3024 20.322 52.3438 21.0281 52.3438 21.4021C52.3852 21.9004 52.3852 22.3996 52.3852 22.8979C52.3852 24.1858 52.3852 25.5164 52.3852 26.8043C52.3852 26.8461 52.3852 26.9287 52.3852 26.9704C52.3852 27.0539 52.3438 27.0948 52.2618 27.0948C52.2204 27.0948 52.179 27.0948 52.1385 27.0948C51.0669 27.0948 50.0359 27.0948 48.9635 27.0948C48.7573 27.0948 48.7573 27.0948 48.7573 26.887C48.7573 21.4847 48.7573 16.0816 48.7573 10.7211C48.7573 10.5132 48.7573 10.5132 48.9635 10.5132C50.0351 10.5132 51.1075 10.5132 52.1385 10.5132C52.3446 10.5132 52.3447 10.5132 52.3447 10.7211C52.3447 11.3446 52.2618 12.009 52.2618 12.6743C52.2618 12.7578 52.3032 12.7987 52.3852 12.7987C52.468 12.8404 52.55 12.7987 52.5914 12.6743C53.0038 11.6768 53.7458 10.8872 54.4877 10.6376C56.0545 10.0558 58.6108 10.2219 60.1776 11.8847C60.961 12.716 61.4148 13.7544 61.621 14.8771C61.8272 16.2068 61.7444 17.4956 61.3734 18.7836C60.9196 20.155 60.1776 21.2769 58.8999 21.9421C57.9517 22.4404 57.2511 22.5657 55.8906 22.5657C54.53 22.5657 53.1694 21.6517 52.5923 20.3629C52.5508 20.2385 52.4689 20.1967 52.3861 20.2385C52.3438 20.1976 52.3024 20.2385 52.3024 20.2802ZM52.4266 16.5816C52.4266 16.7477 52.4266 16.9556 52.4266 17.1217C52.468 17.9948 52.839 18.7009 53.581 19.1993C54.0348 19.5315 54.5706 19.6567 55.1063 19.6976C56.3021 19.8219 57.2917 19.2401 57.7861 18.16C58.2399 17.1208 58.3218 16.0407 57.9923 14.9597C57.6627 13.8796 56.9207 13.1726 55.7655 13.0482C54.4877 12.9239 53.2092 13.5057 52.6734 14.8771C52.468 15.4598 52.4266 16.0416 52.4266 16.5816Z" fill="white"/>
<path d="M72.7517 13.5891C72.9579 13.0073 73.5765 10.888 75.9266 10.4305C76.71 10.2644 77.8229 10.2644 78.7711 10.514C79.6779 10.7636 80.4612 11.2202 81.0384 12.0098C81.4922 12.6334 81.6984 13.3395 81.8218 14.1292C81.8632 14.4205 81.8632 14.7527 81.8632 15.0849C81.8632 17.4121 81.8632 19.781 81.8632 22.1082C81.8632 22.1499 81.8632 22.1917 81.8632 22.2743C81.8632 22.3578 81.8218 22.3987 81.7398 22.3987C81.6984 22.3987 81.657 22.3987 81.6165 22.3987C80.5855 22.3987 79.5139 22.3987 78.4829 22.3987C78.2353 22.3987 78.2353 22.3987 78.2353 22.1491C78.2353 20.0715 78.2353 17.993 78.2353 15.9154C78.2353 15.5415 78.1939 15.1675 78.0705 14.7936C77.8643 14.2118 77.4934 13.7961 76.9162 13.5883C76.05 13.2969 75.1846 13.2969 74.3184 13.63C73.535 13.9213 73.0407 14.544 72.7931 15.3754C72.6283 15.8737 72.5869 16.4146 72.5869 16.9547C72.5869 18.6583 72.5869 20.4037 72.5869 22.1082C72.5869 22.1917 72.5869 22.2326 72.5869 22.316C72.5869 22.3995 72.5455 22.4404 72.4635 22.4404C72.4221 22.4404 72.3807 22.4404 72.3401 22.4404C71.3091 22.4404 70.2376 22.4404 69.2066 22.4404C68.959 22.4404 68.959 22.4404 68.959 22.1908C68.959 18.4087 68.959 14.5857 68.959 10.8036C68.959 10.5541 68.959 10.5541 69.2066 10.5541C70.2376 10.5541 71.3091 10.5541 72.3401 10.5541C72.5463 10.5541 72.5463 10.5541 72.5463 10.7619C72.5049 11.635 72.3815 13.5465 72.3815 13.6291C72.3815 13.6709 72.4229 13.7126 72.5049 13.7126C72.5869 13.7126 72.7517 13.6308 72.7517 13.5891Z" fill="white"/>
<path d="M67.104 16.4155C67.104 18.2852 67.104 20.1558 67.104 22.0673C67.104 22.1091 67.104 22.1917 67.104 22.2334C67.104 22.3169 67.0626 22.3578 66.9806 22.3578C66.9392 22.3578 66.8978 22.3578 66.8572 22.3578C65.8262 22.3578 64.7547 22.3578 63.7237 22.3578C63.4761 22.3578 63.4761 22.3578 63.4761 22.1082C63.4761 18.3261 63.4761 14.5031 63.4761 10.7211C63.4761 10.4715 63.4761 10.4715 63.7237 10.4715C64.7547 10.4715 65.8262 10.4715 66.8572 10.4715C67.1048 10.4715 67.1048 10.4715 67.1048 10.7211C67.104 12.6334 67.104 14.504 67.104 16.4155Z" fill="white"/>
<path d="M65.2897 6.31714C65.8255 6.31714 66.3613 6.31714 66.8979 6.31714C67.0213 6.31714 67.0627 6.35888 67.0627 6.48324C67.0627 7.31462 67.0627 8.18689 67.0627 9.01827C67.0627 9.18437 67.0213 9.18437 66.8565 9.18437C65.785 9.18437 64.7126 9.18437 63.641 9.18437C63.4348 9.18437 63.4348 9.18437 63.4348 8.97653C63.4348 8.14515 63.4348 7.31462 63.4348 6.48324C63.4348 6.31714 63.4348 6.31714 63.641 6.31714C64.2596 6.31714 64.754 6.31714 65.2897 6.31714Z" fill="white"/>
<path d="M108.786 11.6359C107.632 10.6384 106.271 10.1401 104.663 10.0983C103.55 10.0983 102.436 10.3479 101.448 10.9297C99.427 12.0933 98.4382 13.9222 98.4382 16.4155C98.4382 18.327 98.974 19.8645 100.17 21.0281C101.366 22.1499 102.891 22.7317 104.746 22.7317C106.56 22.7317 108.209 22.0665 109.569 20.7785C109.611 20.7368 109.611 20.695 109.569 20.6541L107.715 18.6174C107.715 18.6174 107.673 18.5757 107.632 18.5757C107.632 18.5757 107.59 18.5757 107.549 18.6174C106.807 19.3653 105.859 19.781 104.745 19.781C103.591 19.781 102.271 18.9079 102.065 17.7443C102.065 17.7026 102.107 17.6608 102.148 17.6608H110.311C110.353 17.6608 110.394 17.6191 110.394 17.5773V15.8737C110.394 14.0465 109.94 12.6334 108.786 11.6359ZM102.231 15.2101C102.189 15.2101 102.148 15.1684 102.148 15.1267C102.437 13.8387 103.673 13.0899 104.622 13.0899C105.24 13.0899 105.776 13.2978 106.23 13.63C106.601 13.9622 106.848 14.544 106.972 15.1258C106.972 15.1675 106.93 15.2093 106.889 15.2093H102.231V15.2101Z" fill="white"/>
</g>
<defs>
<clipPath id="clip0_7_751">
<rect width="120" height="29.6451" fill="white"/>
</clipPath>
</defs>
</svg>
